# xmcd
#
# Track frame offsets: 
#        150
#        16519
#        37068
#        51350
#        65528
#        82296
#        99499
#        111544
#        130838
#        146425
#        165076
#
# Disc length: 2424 seconds
#
# Revision: 0
# Processed by: cddbd v1.5.2PL0 Copyright (c) Steve Scherf et al.
# Submitted via: ExactAudioCopy v1.3
#
DISCID=9209760b
DTITLE=Shelley King - Fan Faves
DYEAR=2017
DGENRE=Country Blues
TTITLE0=Call Of My Heart
TTITLE1=Drivin' By Myself
TTITLE2=High On A Mountain
TTITLE3=Tennessee Whiskey
TTITLE4=Texas Blue Moon
TTITLE5=Walk On
TTITLE6=Texas Style Zydeco
TTITLE7=Welcome Home
TTITLE8=Summer Wine
TTITLE9=Things You Do
TTITLE10=Building A Fire
EXTD=
EXTT0=
EXTT1=
EXTT2=
EXTT3=
EXTT4=
EXTT5=
EXTT6=
EXTT7=
EXTT8=
EXTT9=
EXTT10=
PLAYORDER=
